# xmcd
#
# Track frame offsets:
#	150
#	21672
#	39187
#	59680
#	73622
#	93825
#	109960
#	128512
#	148652
#	163865
#	180550
#	193140
#	210885
#	223210
#	239517
#	257822
#	275075
#	295727
#	314162
#	333382
#
# Disc length: 4662 seconds
#
# Revision: 1
# Processed by: cddbd v1.5PL3 Copyright (c) Steve Scherf et al.
# Submitted via: CDex 1.50Beta5
#
DISCID=42123414
DTITLE=小林旭 - 小林旭 全曲集
DYEAR=1999
DGENRE=歌謡曲
TTITLE0=熱き心に
TTITLE1=昔の名前で出ています
TTITLE2=風の旅人
TTITLE3=純子
TTITLE4=さすらいの道
TTITLE5=女房きどり
TTITLE6=ついて来るかい
TTITLE7=五月雨ワルツ
TTITLE8=お世話になったあの人へ
TTITLE9=水たまり
TTITLE10=北帰行
TTITLE11=北へ
TTITLE12=自動車ショー歌
TTITLE13=はぐれ雲
TTITLE14=ごめんね
TTITLE15=古城の月
TTITLE16=旅空夜空
TTITLE17=さらば冬のカモメ
TTITLE18=夜の旅人
TTITLE19=オロロン慕情
EXTD=
EXTT0=
EXTT1=
EXTT2=
EXTT3=
EXTT4=
EXTT5=
EXTT6=
EXTT7=
EXTT8=
EXTT9=
EXTT10=
EXTT11=
EXTT12=
EXTT13=
EXTT14=
EXTT15=
EXTT16=
EXTT17=
EXTT18=
EXTT19=
PLAYORDER=
